<?xml version="1.0" encoding="iso-8859-1"?>
<!-- Generator: Adobe Illustrator 19.0.0, SVG Export Plug-In . SVG Version: 6.00 Build 0)  -->
<svg version="1.1" id="yandex-disk" xmlns="http://www.w3.org/2000/svg" xmlns:xlink="http://www.w3.org/1999/xlink" x="0px" y="0px"
	 viewBox="0 0 512.001 512.001" style="enable-background:new 0 0 512.001 512.001;" xml:space="preserve">
<polygon style="fill:#D1DEE4;" points="294.555,418.351 407.033,388.212 426.029,318.857 205.02,315.974 "/>
<polygon style="fill:#EFF6F9;" points="130.948,397.924 182.076,448.489 294.555,418.351 262.962,300.447 "/>
<path d="M200.795,68.435c28.412-7.613,58.004-6.377,85.58,3.576c26.879,9.701,50.001,26.944,66.878,49.875l23.379,30.469
	L195.018,278.647L200.795,68.435z"/>
<path style="fill:#012231;" d="M200.795,68.435c-28.412,7.612-53.422,23.48-72.327,45.887c-18.428,21.84-29.83,48.335-32.981,76.631
	l-5.012,38.077l162.486,34.091L200.795,68.435z"/>
<path style="fill:#00B8FA;" d="M200.899,242.652l309.423-36.332c9.33,34.818-20.419,75.484-84.334,112.385l-147.541,39.533
	L200.899,242.652z"/>
<path style="fill:#5CD4FF;" d="M244.356,231.007L1.679,342.609c9.329,34.818,55.425,55.161,129.227,55.161l147.541-39.533
	L244.356,231.007z"/>
<path style="fill:#012231;" d="M256.001,274.465l254.321-68.145c-9.329-34.818-55.425-55.161-129.227-55.161
	c-1.576,0-147.541,39.533-147.541,39.533l-32.234,53.53L256.001,274.465z"/>
<path style="fill:#014059;" d="M256.001,274.465L1.679,342.61c-9.33-34.818,20.419-75.484,84.334-112.385
	c1.365-0.788,147.541-39.533,147.541-39.533L256.001,274.465z"/>
<g>
</g>
<g>
</g>
<g>
</g>
<g>
</g>
<g>
</g>
<g>
</g>
<g>
</g>
<g>
</g>
<g>
</g>
<g>
</g>
<g>
</g>
<g>
</g>
<g>
</g>
<g>
</g>
<g>
</g>
</svg>
